<svg width="104" height="448" viewBox="0 0 104 448" fill="none" xmlns="http://www.w3.org/2000/svg">
<path d="M95.0988 155.383C91.0986 119.383 65.0988 48.3831 58.5988 35.8831C52.0988 23.3831 48.0988 2.88305 24.0988 0.383053C0.0987663 -2.11695 -0.401235 7.38305 0.0987654 35.8831C0.598765 64.3831 24.0988 151.883 24.0988 151.883C24.0988 151.883 38.1479 195.135 40.5989 217.883C43.0498 240.631 40.5989 280.383 40.5989 292.883C40.5989 292.883 38.5986 334.883 49.0988 355.883C59.5989 376.883 56.0986 374.883 72.0988 380.883C88.0989 386.883 95.0988 347.383 95.0988 347.383L103.599 235.883C103.599 235.883 99.0989 191.383 95.0988 155.383Z" fill="white"/>
<circle cx="71" cy="429" r="19" fill="white"/>
</svg>
