<svg width="1080" height="1080" viewBox="0 0 1080 1080" fill="none" xmlns="http://www.w3.org/2000/svg">
<g clip-path="url(#clip0_244_5)">
<path d="M540.772 921.673C505.557 921.673 477.189 911.239 455.668 890.371C434.148 868.85 418.17 838.2 407.736 798.42L304.047 387.574C303.395 386.27 302.417 385.944 301.112 386.596C299.808 386.596 299.156 387.248 299.156 388.553V906.022H131.883V310.296C131.883 262.038 145.578 224.867 172.968 198.781C200.357 172.044 234.594 158.675 275.679 158.675C351.979 158.675 402.519 205.303 427.3 298.558L536.859 699.621C537.511 701.577 538.489 702.556 539.794 702.556C541.098 702.556 542.076 701.577 542.728 699.621L649.352 298.558C661.743 252.909 680.655 218.345 706.088 194.868C732.174 170.739 765.106 158.675 804.887 158.675C845.971 158.675 879.882 172.044 906.62 198.781C934.009 224.867 947.704 262.038 947.704 310.296V906.022H781.41V381.705C781.41 380.401 780.758 379.423 779.453 378.771C778.149 378.118 777.171 378.771 776.519 380.727L671.851 798.42C662.069 838.2 646.418 868.85 624.897 890.371C604.029 911.239 575.987 921.673 540.772 921.673Z" fill="#2AD1E2"/>
<path d="M544.327 921.673C473.897 921.673 412.596 906.348 360.425 875.698C308.907 844.395 268.8 800.376 240.106 743.64C212.065 686.904 198.044 619.408 198.044 541.152C198.044 462.896 212.065 395.074 240.106 337.686C268.8 280.298 308.907 236.279 360.425 205.629C412.596 174.326 473.897 158.675 544.327 158.675C615.41 158.675 676.711 174.326 728.23 205.629C779.748 236.279 819.529 280.298 847.57 337.686C876.264 395.074 890.611 462.896 890.611 541.152C890.611 619.408 876.264 686.904 847.57 743.64C819.529 800.376 779.748 844.395 728.23 875.698C676.711 906.348 615.41 921.673 544.327 921.673ZM544.327 770.052C596.498 770.052 637.909 749.509 668.559 708.425C699.21 667.34 714.535 611.583 714.535 541.152C714.535 470.07 699.21 413.986 668.559 372.901C637.909 331.165 596.498 310.296 544.327 310.296C492.157 310.296 450.746 331.165 420.096 372.901C389.445 413.986 374.12 470.07 374.12 541.152C374.12 611.583 389.445 667.34 420.096 708.425C450.746 749.509 492.157 770.052 544.327 770.052Z" fill="#829CEE"/>
</g>
<defs>
<clipPath id="clip0_244_5">
<rect width="1080" height="1080" fill="white"/>
</clipPath>
</defs>
</svg>
