<svg width="1080" height="1080" viewBox="0 0 1080 1080" fill="none" xmlns="http://www.w3.org/2000/svg">
<g clip-path="url(#clip0_244_5)">
<mask id="path-1-outside-1_244_5" maskUnits="userSpaceOnUse" x="129" y="156" width="821" height="768" fill="black">
<rect fill="white" x="129" y="156" width="821" height="768"/>
<path d="M540.772 921.673C505.557 921.673 477.189 911.239 455.668 890.371C434.148 868.85 418.17 838.2 407.736 798.42L304.047 387.574C303.395 386.27 302.417 385.944 301.112 386.596C299.808 386.596 299.156 387.248 299.156 388.553V906.022H131.883V310.296C131.883 262.038 145.578 224.867 172.968 198.781C200.357 172.044 234.594 158.675 275.679 158.675C351.979 158.675 402.519 205.303 427.3 298.558L536.859 699.621C537.511 701.577 538.489 702.556 539.794 702.556C541.098 702.556 542.076 701.577 542.728 699.621L649.352 298.558C661.743 252.909 680.655 218.345 706.088 194.868C732.174 170.739 765.106 158.675 804.887 158.675C845.971 158.675 879.882 172.044 906.62 198.781C934.009 224.867 947.704 262.038 947.704 310.296V906.022H781.41V381.705C781.41 380.401 780.758 379.423 779.453 378.771C778.149 378.118 777.171 378.771 776.519 380.727L671.851 798.42C662.069 838.2 646.418 868.85 624.897 890.371C604.029 911.239 575.987 921.673 540.772 921.673Z"/>
</mask>
<path d="M540.772 921.673C505.557 921.673 477.189 911.239 455.668 890.371C434.148 868.85 418.17 838.2 407.736 798.42L304.047 387.574C303.395 386.27 302.417 385.944 301.112 386.596C299.808 386.596 299.156 387.248 299.156 388.553V906.022H131.883V310.296C131.883 262.038 145.578 224.867 172.968 198.781C200.357 172.044 234.594 158.675 275.679 158.675C351.979 158.675 402.519 205.303 427.3 298.558L536.859 699.621C537.511 701.577 538.489 702.556 539.794 702.556C541.098 702.556 542.076 701.577 542.728 699.621L649.352 298.558C661.743 252.909 680.655 218.345 706.088 194.868C732.174 170.739 765.106 158.675 804.887 158.675C845.971 158.675 879.882 172.044 906.62 198.781C934.009 224.867 947.704 262.038 947.704 310.296V906.022H781.41V381.705C781.41 380.401 780.758 379.423 779.453 378.771C778.149 378.118 777.171 378.771 776.519 380.727L671.851 798.42C662.069 838.2 646.418 868.85 624.897 890.371C604.029 911.239 575.987 921.673 540.772 921.673Z" fill="#2AD1E2"/>
<path d="M455.668 890.371L454.254 891.785L454.265 891.796L454.276 891.806L455.668 890.371ZM407.736 798.419L405.797 798.909L405.799 798.918L405.802 798.927L407.736 798.419ZM304.047 387.574L305.986 387.085L305.933 386.874L305.836 386.68L304.047 387.574ZM301.112 386.596V388.596H301.584L302.007 388.385L301.112 386.596ZM299.156 906.022V908.022H301.156V906.022H299.156ZM131.883 906.022H129.883V908.022H131.883V906.022ZM172.968 198.781L174.347 200.23L174.356 200.221L174.365 200.212L172.968 198.781ZM427.3 298.558L425.367 299.072L425.371 299.085L427.3 298.558ZM536.859 699.621L534.93 700.148L534.944 700.201L534.962 700.253L536.859 699.621ZM542.728 699.621L544.626 700.253L544.645 700.195L544.661 700.135L542.728 699.621ZM649.352 298.558L647.422 298.034L647.42 298.044L649.352 298.558ZM706.088 194.868L707.445 196.338L707.446 196.337L706.088 194.868ZM906.62 198.781L905.205 200.195L905.223 200.213L905.24 200.23L906.62 198.781ZM947.704 906.022V908.022H949.704V906.022H947.704ZM781.41 906.022H779.41V908.022H781.41V906.022ZM779.453 378.771L780.348 376.982V376.982L779.453 378.771ZM776.519 380.727L774.621 380.094L774.597 380.167L774.579 380.241L776.519 380.727ZM671.851 798.419L669.911 797.933L669.909 797.942L671.851 798.419ZM624.897 890.371L626.312 891.785V891.785L624.897 890.371ZM540.772 921.673V919.673C505.979 919.673 478.143 909.379 457.061 888.935L455.668 890.371L454.276 891.806C476.234 913.099 505.134 923.673 540.772 923.673V921.673ZM455.668 890.371L457.082 888.956C435.886 867.76 420.046 837.465 409.671 797.912L407.736 798.419L405.802 798.927C416.295 838.934 432.41 869.94 454.254 891.785L455.668 890.371ZM407.736 798.419L409.676 797.93L305.986 387.085L304.047 387.574L302.108 388.064L405.797 798.909L407.736 798.419ZM304.047 387.574L305.836 386.68C305.372 385.752 304.626 384.844 303.457 384.454C302.287 384.064 301.146 384.343 300.218 384.807L301.112 386.596L302.007 388.385C302.189 388.294 302.287 388.274 302.312 388.27C302.327 388.268 302.275 388.277 302.192 388.249C302.108 388.221 302.072 388.183 302.082 388.194C302.1 388.211 302.167 388.286 302.258 388.469L304.047 387.574ZM301.112 386.596V384.596C300.152 384.596 299.064 384.838 298.231 385.671C297.397 386.505 297.156 387.592 297.156 388.553H299.156H301.156C301.156 388.472 301.161 388.415 301.166 388.377C301.172 388.339 301.177 388.325 301.175 388.329C301.174 388.334 301.166 388.356 301.146 388.389C301.126 388.423 301.097 388.462 301.059 388.5C301.021 388.537 300.983 388.566 300.949 388.586C300.916 388.606 300.893 388.614 300.889 388.616C300.885 388.617 300.899 388.612 300.937 388.607C300.974 388.601 301.032 388.596 301.112 388.596V386.596ZM299.156 388.553H297.156V906.022H299.156H301.156V388.553H299.156ZM299.156 906.022V904.022H131.883V906.022V908.022H299.156V906.022ZM131.883 906.022H133.883V310.296H131.883H129.883V906.022H131.883ZM131.883 310.296H133.883C133.883 262.426 147.456 225.84 174.347 200.23L172.968 198.781L171.588 197.333C143.7 223.893 129.883 261.651 129.883 310.296H131.883ZM172.968 198.781L174.365 200.212C201.352 173.868 235.074 160.675 275.679 160.675V158.675V156.675C234.115 156.675 199.363 170.219 171.571 197.35L172.968 198.781ZM275.679 158.675V160.675C313.386 160.675 344.594 172.181 369.453 195.116C394.353 218.088 413.037 252.669 425.367 299.072L427.3 298.558L429.233 298.044C416.783 251.191 397.806 215.831 372.165 192.176C346.484 168.483 314.272 156.675 275.679 156.675V158.675ZM427.3 298.558L425.371 299.085L534.93 700.148L536.859 699.621L538.788 699.094L429.23 298.031L427.3 298.558ZM536.859 699.621L534.962 700.253C535.701 702.471 537.161 704.556 539.794 704.556V702.556V700.556C539.707 700.556 539.635 700.547 539.496 700.408C539.308 700.219 539.029 699.805 538.756 698.989L536.859 699.621ZM539.794 702.556V704.556C542.426 704.556 543.886 702.471 544.626 700.253L542.728 699.621L540.831 698.989C540.559 699.805 540.28 700.219 540.091 700.408C539.952 700.547 539.881 700.556 539.794 700.556V702.556ZM542.728 699.621L544.661 700.135L651.285 299.072L649.352 298.558L647.42 298.044L540.795 699.107L542.728 699.621ZM649.352 298.558L651.283 299.082C663.609 253.667 682.371 219.483 707.445 196.338L706.088 194.868L704.732 193.399C678.938 217.208 659.876 252.15 647.422 298.034L649.352 298.558ZM706.088 194.868L707.446 196.337C733.117 172.591 765.545 160.675 804.887 160.675V158.675V156.675C764.668 156.675 731.23 168.888 704.73 193.4L706.088 194.868ZM804.887 158.675V160.675C845.491 160.675 878.877 173.867 905.205 200.195L906.62 198.781L908.034 197.367C880.887 170.22 846.451 156.675 804.887 156.675V158.675ZM906.62 198.781L905.24 200.23C932.131 225.84 945.704 262.426 945.704 310.296H947.704H949.704C949.704 261.651 935.887 223.893 907.999 197.333L906.62 198.781ZM947.704 310.296H945.704V906.022H947.704H949.704V310.296H947.704ZM947.704 906.022V904.022H781.41V906.022V908.022H947.704V906.022ZM781.41 906.022H783.41V381.705H781.41H779.41V906.022H781.41ZM781.41 381.705H783.41C783.41 380.703 783.153 379.737 782.585 378.884C782.024 378.043 781.237 377.426 780.348 376.982L779.453 378.771L778.559 380.559C778.974 380.767 779.165 380.965 779.256 381.103C779.34 381.228 779.41 381.403 779.41 381.705H781.41ZM779.453 378.771L780.348 376.982C779.234 376.425 777.869 376.282 776.632 377.107C775.583 377.806 774.993 378.979 774.621 380.094L776.519 380.727L778.416 381.359C778.545 380.973 778.668 380.72 778.765 380.564C778.863 380.408 778.903 380.4 778.851 380.435C778.777 380.484 778.658 380.526 778.536 380.526C778.437 380.526 778.436 380.498 778.559 380.559L779.453 378.771ZM776.519 380.727L774.579 380.241L669.911 797.933L671.851 798.419L673.791 798.906L778.459 381.213L776.519 380.727ZM671.851 798.419L669.909 797.942C660.185 837.486 644.671 867.769 623.483 888.956L624.897 890.371L626.312 891.785C648.165 869.932 663.953 838.913 673.793 798.897L671.851 798.419ZM624.897 890.371L623.483 888.956C603.061 909.378 575.567 919.673 540.772 919.673V921.673V923.673C576.408 923.673 604.997 913.099 626.312 891.785L624.897 890.371Z" fill="white" mask="url(#path-1-outside-1_244_5)"/>
</g>
<defs>
<clipPath id="clip0_244_5">
<rect width="1080" height="1080" fill="white"/>
</clipPath>
</defs>
</svg>
